<svg width="600" height="600" xmlns="http://www.w3.org/2000/svg" version="1.1">
 <g>
  <title>Layer 1</title>
  <rect rx="50" stroke-width="20" stroke="#dd0808" fill="#ffffff" id="svg_1" height="549.33335" width="338.66668" y="25.33331" x="130.66665"/>
  <path fill="#dd0808" id="path399" d="m257.22222,197.33303c-32.91355,0 -59.88889,26.97534 -59.88889,59.88889a13.69026,13.69026 0 0 0 0,0.02741c0.02703,13.41464 4.58859,26.4105 12.88079,36.93193a13.69026,13.69026 0 0 0 0.21122,0.45852l78.71111,102.66799a13.69026,13.69026 0 0 0 21.7271,0l78.71111,-102.668a13.69026,13.69026 0 0 0 0.55277,-0.91638c8.06833,-10.44112 12.5126,-23.25054 12.53924,-36.47407a13.69026,13.69026 0 0 0 0,-0.02741c0,-32.91355 -26.97534,-59.88889 -59.88889,-59.88889a13.69026,13.69026 0 0 0 -0.03207,0c-16.37768,0.03813 -31.66309,6.80327 -42.69558,18.09032c-11.06251,-11.318 -26.40117,-18.08726 -42.82523,-18.09032a13.69026,13.69026 0 0 0 -0.00267,0zm-0.00274,27.37778l0.00274,0c13.29026,0.00355 25.15621,8.00947 30.13494,20.33214a13.69026,13.69026 0 0 0 25.3846,0c4.96713,-12.29407 16.79182,-20.29332 30.05005,-20.33148c18.1063,0.00753 32.48923,14.39068 32.4964,32.49707c-0.01824,7.45707 -2.59523,14.67439 -7.30564,20.45579a13.69026,13.69026 0 0 0 -0.25934,0.47925l-67.72323,88.33611l-67.50667,-88.05337a13.69026,13.69026 0 0 0 -0.4759,-0.76198c-4.71041,-5.7814 -7.28739,-12.99873 -7.30564,-20.45579c0.00718,-18.11023 14.39605,-32.49631 32.50777,-32.49774l-0.00007,0z"/>
 </g>
</svg>