<svg width="600" height="600" xmlns="http://www.w3.org/2000/svg" xml:space="preserve" version="1.1" fill="#000000">
 <g>
  <title>Layer 1</title>
  <path fill="#ffff4f" stroke="#ffffff" stroke-width="10" id="svg_1" d="m542.81251,236.25c-9.7125,0 -16.1875,6.475 -16.1875,16.1875c0,93.8875 -58.275,174.825 -139.2125,208.81875c45.325,-38.85 74.4625,-95.50625 74.4625,-160.25625c0,-116.55 -93.8875,-210.4375 -210.4375,-210.4375s-210.4375,93.8875 -210.4375,210.4375s93.8875,210.4375 210.4375,210.4375l48.5625,0c142.45,0 259,-116.55 259,-259c0,-9.7125 -6.475,-16.1875 -16.1875,-16.1875zm-406.30625,-50.18125c17.80625,-19.425 50.18125,-19.425 67.9875,0c0,0 0,0 0,0s0,0 0,0c9.7125,8.09375 14.56875,21.04375 14.56875,33.99375s-4.85625,25.9 -14.56875,33.99375c-8.09375,9.7125 -21.04375,14.56875 -33.99375,14.56875s-25.9,-4.85625 -33.99375,-14.56875c-9.7125,-8.09375 -14.56875,-21.04375 -14.56875,-33.99375s4.85625,-25.9 14.56875,-33.99375zm67.9875,229.8625c-8.09375,9.7125 -21.04375,14.56875 -33.99375,14.56875s-25.9,-4.85625 -33.99375,-14.56875c-9.7125,-8.09375 -14.56875,-21.04375 -14.56875,-33.99375s4.85625,-25.9 14.56875,-33.99375c0,0 0,0 0,0s0,0 0,0c17.80625,-17.80625 50.18125,-17.80625 67.9875,0c9.7125,9.7125 14.56875,21.04375 14.56875,33.99375s-4.85625,25.9 -14.56875,33.99375zm12.95,-80.9375c-9.7125,-8.09375 -14.56875,-21.04375 -14.56875,-33.99375s4.85625,-25.9 14.56875,-33.99375c17.80625,-17.80625 50.18125,-17.80625 67.9875,0c0,0 0,0 0,0s0,0 0,0c9.7125,9.7125 14.56875,21.04375 14.56875,33.99375s-4.85625,25.9 -14.56875,33.99375c-8.09375,9.7125 -21.04375,14.56875 -33.99375,14.56875s-25.9,-4.85625 -33.99375,-14.56875zm148.925,80.9375c-8.09375,9.7125 -21.04375,14.56875 -33.99375,14.56875s-25.9,-4.85625 -33.99375,-14.56875c0,0 0,0 0,0s0,0 0,0c-9.7125,-8.09375 -14.56875,-21.04375 -14.56875,-33.99375s4.85625,-25.9 14.56875,-33.99375c17.80625,-17.80625 50.18125,-17.80625 67.9875,0c9.7125,9.7125 14.56875,21.04375 14.56875,33.99375s-4.85625,25.9 -14.56875,33.99375zm0,-161.875c0,0 0,0 0,0c0,0 0,0 0,0c-8.09375,9.7125 -21.04375,14.56875 -33.99375,14.56875s-25.9,-4.85625 -33.99375,-14.56875c-9.7125,-8.09375 -14.56875,-21.04375 -14.56875,-33.99375s4.85625,-25.9 14.56875,-33.99375c17.80625,-17.80625 50.18125,-17.80625 67.9875,0c9.7125,8.09375 14.56875,21.04375 14.56875,33.99375s-4.85625,25.9 -14.56875,33.99375z"/>
 </g>
</svg>