<svg width="600" height="600" xmlns="http://www.w3.org/2000/svg" xml:space="preserve" version="1.1" fill="#000000">
 <g>
  <title>Layer 1</title>
  <rect id="svg_6" height="70" width="199" y="520.87318" x="200.5" stroke-width="10" stroke="#ffffff" fill="#1c23ff"/>
  <g stroke-width="10" id="svg_1">
   <g id="svg_2">
    <g id="svg_3">
     <path stroke="#ffffff" fill="#1c23ff" id="svg_4" d="m300,130.667c29.461,0 53.333,-23.872 53.333,-53.333c0,-29.462 -23.872,-53.334 -53.333,-53.334c-29.461,0 -53.333,23.872 -53.333,53.333c0,29.462 23.872,53.334 53.333,53.334z"/>
     <path stroke="#ffffff" fill="#1c23ff" id="svg_5" d="m342.667,152l-85.333,0c-29.398,0 -53.334,23.936 -53.334,53.333l0,128c0,17.643 14.357,32 32,32c3.733,0 7.339,-0.64 10.667,-1.813l0,140.48c0,17.643 14.357,32 32,32c8.192,0 15.659,-3.093 21.333,-8.171c5.675,5.077 13.141,8.171 21.333,8.171c17.643,0 32,-14.357 32,-32l0,-140.48c3.328,1.173 6.933,1.813 10.667,1.813c17.643,0 32,-14.357 32,-32l0,-128c0,-29.397 -23.936,-53.333 -53.333,-53.333z"/>
    </g>
   </g>
  </g>
 </g>
</svg>