<svg width="600" height="600" xmlns="http://www.w3.org/2000/svg">
 <g>
  <title>Layer 1</title>
  <g id="svg_1">
   <path stroke-width="20" stroke="#ffffff" fill="#00b800" d="m472.87942,149.17897a230.21776,298.13458 0 0 1 -130.73526,96.09461a48.02206,62.18911 0 0 0 -84.28832,0a230.21776,298.13458 0 0 1 -130.73526,-96.09461l0,-73.05976a19.20882,24.87564 0 0 1 19.20882,-24.87564l307.34119,0a19.20882,24.87564 0 0 1 19.20882,24.87564l0,73.05976l0.00001,0zm0,69.32842l0,305.37339a19.20882,24.87564 0 0 1 -19.20882,24.87564l-307.34119,0a19.20882,24.87564 0 0 1 -19.20882,-24.87564l0,-305.37339a267.84784,346.86596 0 0 0 127.3545,76.51748a48.04127,62.21398 0 0 0 91.04983,0a267.84784,346.86596 0 0 0 127.3545,-76.51748z" id="svg_3"/>
 </g>
</g>

</svg>