<svg width="600" height="600" xmlns="http://www.w3.org/2000/svg" xml:space="preserve" version="1.1">

 <g>
  <title>Layer 1</title>
  <g stroke-width="20" id="svg_1">
   <path stroke="#ffffff" id="svg_2" fill="#a800a8" d="m300.102,319.69001c-13.136,0 -26.131,-2.015 -38.62,-5.994l-2.073,-0.66l0,203.275c0,5.792 2.199,11.289 6.227,15.512l17.453,17.216c4.276,4.488 10.047,6.96 16.246,6.96c6.202,0 11.97,-2.473 16.211,-6.926l17.525,-17.286c3.992,-4.192 6.19,-9.685 6.19,-15.477l0,-202.753l-2.052,0.625c-12.016,3.657 -24.5,5.508 -37.107,5.508z" class="st0"/>
   <path stroke="#ffffff" id="svg_3" fill="#a800a8" d="m299.999,44.00101c-68.961,0 -125.063,56.106 -125.063,125.069c0,68.959 56.102,125.065 125.063,125.065s125.065,-56.106 125.065,-125.065c0,-68.963 -56.104,-125.069 -125.065,-125.069zm-38.73,126.047c-20.052,0 -36.366,-16.312 -36.366,-36.366c0,-20.05 16.314,-36.362 36.366,-36.362s36.366,16.312 36.366,36.362c0,20.054 -16.314,36.366 -36.366,36.366z" class="st0"/>
  </g>
 </g>
</svg>